# xmcd CD database file
#
# Track frame offsets:
#	150
#	42266
#	74324
#	118991
#	152554
#
# Disc length: 2476 seconds
#
# Revision: 0
# Processed by: cddbd v1.4PL0 Copyright (c) Steve Scherf et al.
# Submitted via: CDex 1.51
#
DISCID=3f09aa05
DTITLE=Tony O Connor - Zodiac Collection - Aries
DYEAR=2001
DGENRE=New Age
TTITLE0=Aries 1
TTITLE1=Aries 2
TTITLE2=Aries 3
TTITLE3=Aries 4
TTITLE4=Aries 5
EXTD=YEAR: 2001
EXTT0=
EXTT1=
EXTT2=
EXTT3=
EXTT4=
PLAYORDER=
